<?xml version="1.0" standalone="no"?>
<!DOCTYPE svg PUBLIC "-//W3C//DTD SVG 20010904//EN"
 "http://www.w3.org/TR/2001/REC-SVG-20010904/DTD/svg10.dtd">
<svg version="1.0" xmlns="http://www.w3.org/2000/svg"
 width="122.000000pt" height="122.000000pt" viewBox="0 0 122.000000 122.000000"
 preserveAspectRatio="xMidYMid meet">
<metadata>
Created by potrace 1.11, written by Peter Selinger 2001-2013
</metadata>
<g transform="translate(0.000000,122.000000) scale(0.100000,-0.100000)"
fill="#000000" stroke="none">
<path d="M517 917 c-11 -7 -19 -31 -23 -62 -10 -100 -19 -118 -48 -90 -15 15
-14 20 8 58 24 43 25 67 1 67 -20 0 -30 -21 -15 -30 9 -5 9 -13 2 -26 -10 -17
-11 -16 -23 9 -12 26 -42 36 -54 17 -3 -5 2 -26 10 -47 16 -37 16 -38 -11 -61
-26 -23 -64 -26 -71 -6 -2 6 7 16 21 23 49 27 52 91 3 91 -50 -1 -81 -57 -65
-117 12 -46 45 -52 101 -20 41 24 45 25 60 9 16 -15 19 -15 45 0 20 12 31 13
44 5 12 -8 21 -7 33 3 10 9 12 16 5 20 -13 8 7 110 21 110 6 0 7 6 2 13 -4 6
-6 20 -5 30 4 20 -17 22 -41 4z m-187 -96 c0 -19 -26 -48 -36 -39 -7 8 14 58
26 58 5 0 10 -8 10 -19z"/>
<path d="M764 902 c-5 -24 -9 -27 -37 -24 -24 3 -38 -3 -56 -22 -49 -52 -25
-152 29 -119 13 9 21 9 26 2 4 -7 23 -9 45 -6 22 3 39 1 39 -3 0 -17 39 -21
65 -7 14 7 35 26 45 42 l19 29 -2 -44 c-2 -37 2 -46 22 -56 30 -15 69 1 95 40
28 44 39 28 12 -18 -22 -38 -23 -45 -10 -50 27 -10 31 -7 64 44 33 52 47 60
56 35 7 -17 30 -20 40 -4 6 10 -9 33 -24 35 -4 0 -20 6 -36 13 -24 9 -32 9
-46 -4 -23 -21 -35 -19 -37 7 -3 39 -51 50 -103 23 -18 -9 -31 -11 -31 -5 -5
39 -17 50 -52 50 -42 -1 -66 -20 -82 -67 -13 -38 -31 -47 -29 -15 1 9 13 47
27 85 l26 67 -30 0 c-24 0 -30 -5 -35 -28z m-32 -92 c-15 -46 -33 -63 -46 -41
-7 11 14 74 28 83 29 20 34 7 18 -42z m178 21 c0 -6 -4 -12 -9 -15 -5 -3 -7
-14 -4 -24 6 -25 -35 -62 -47 -42 -8 14 3 54 22 77 12 15 38 17 38 4z m140
-31 c0 -5 -5 -10 -11 -10 -6 0 -9 -9 -6 -19 7 -28 -30 -66 -49 -51 -23 20 19
89 54 90 6 0 12 -4 12 -10z"/>
<path d="M181 901 c-10 -6 -12 -29 -8 -97 l4 -89 -23 74 c-29 92 -34 98 -74
81 -61 -25 -104 -108 -64 -124 28 -11 35 -7 24 14 -11 21 -4 70 11 70 5 0 9
-6 10 -12 0 -7 3 -26 5 -43 9 -63 13 -101 14 -118 0 -13 6 -17 23 -15 24 3 25
9 15 113 -5 56 -5 58 8 30 7 -16 13 -36 14 -43 0 -27 31 -72 49 -72 26 0 38
19 35 58 -1 17 -2 66 -3 107 -1 76 -7 86 -40 66z"/>
<path d="M350 661 c-34 -10 -61 -61 -65 -126 -3 -47 0 -59 18 -76 24 -22 72
-23 98 -2 14 11 18 11 29 -2 28 -34 93 -3 106 52 4 13 10 23 16 23 5 0 6 -10
3 -22 -4 -13 -9 -32 -12 -43 -3 -10 -16 -28 -29 -38 -28 -21 -30 -39 -9 -57
11 -9 22 -10 38 -3 15 7 29 7 45 0 30 -14 59 14 67 63 14 82 32 145 42 145 6
0 15 3 19 8 4 4 0 7 -9 7 -19 0 -22 17 -8 39 8 12 12 12 25 2 13 -11 16 -11
16 2 0 26 -28 41 -53 30 -15 -7 -29 -8 -41 -1 -28 16 -65 -15 -72 -62 -8 -48
-29 -71 -37 -40 -12 47 -87 31 -107 -23 -20 -55 -26 -62 -58 -65 -26 -3 -32 1
-38 22 -12 48 15 140 43 150 22 9 35 -3 30 -25 -3 -11 0 -19 8 -19 20 0 25 26
9 49 -16 22 -31 24 -74 12z m300 -40 c0 -20 -17 -37 -27 -28 -7 8 7 47 18 47
5 0 9 -9 9 -19z m-10 -48 c0 -7 -9 -48 -35 -160 -7 -31 -25 -29 -25 2 0 14 3
25 8 25 4 0 8 23 9 51 3 52 17 89 33 89 6 0 10 -3 10 -7z m-126 -39 c-1 -39
-25 -71 -44 -59 -7 5 -10 19 -6 38 12 62 52 79 50 21z m26 -111 c0 -14 -19
-38 -25 -32 -8 8 5 39 16 39 5 0 9 -3 9 -7z"/>
<path d="M730 558 c-22 -37 -26 -88 -8 -106 16 -16 49 -15 75 3 19 13 22 13
27 0 7 -20 60 -19 77 2 12 15 12 16 -7 11 -29 -7 -48 6 -41 27 4 9 11 14 15
11 14 -8 52 32 52 54 0 37 -89 34 -91 -3 0 -7 -4 -2 -9 11 -15 36 -65 30 -90
-10z m60 -23 c-7 -8 -16 -15 -21 -15 -15 0 -10 22 9 43 15 17 17 17 20 3 2 -9
-2 -23 -8 -31z m106 10 c-6 -25 -36 -36 -36 -13 0 14 31 50 38 44 2 -3 2 -17
-2 -31z m-84 -35 c-5 -35 -23 -53 -46 -44 -24 9 -19 27 17 51 18 11 32 22 33
22 0 1 -1 -12 -4 -29z"/>
<path d="M210 566 c-10 -13 -10 -19 0 -32 12 -14 15 -14 29 0 14 15 14 17 0
32 -14 14 -17 14 -29 0z"/>
<path d="M962 568 c-7 -7 -12 -17 -12 -24 0 -19 27 -24 41 -8 17 21 -10 51
-29 32z"/>
<path d="M391 348 c10 -18 9 -20 -6 -14 -15 5 -16 4 -6 -8 7 -8 19 -12 27 -9
17 6 18 15 2 32 -9 10 -9 12 -1 7 6 -3 14 -2 18 4 4 6 -5 10 -20 10 -23 0 -25
-2 -14 -22z"/>
<path d="M780 359 c0 -5 5 -7 11 -3 8 5 10 -1 7 -18 -4 -21 -1 -24 14 -20 14
3 16 7 7 12 -6 5 -9 15 -6 24 5 11 1 16 -13 16 -11 0 -20 -5 -20 -11z"/>
<path d="M431 338 c-5 -13 -6 -27 -3 -33 4 -5 8 -1 10 10 2 11 9 25 14 30 7 7
9 1 4 -17 -3 -15 -2 -30 4 -33 5 -3 10 2 10 12 1 17 1 17 14 1 7 -10 16 -18
18 -18 10 0 16 50 7 56 -5 3 -9 -2 -9 -10 0 -13 -4 -12 -20 4 -26 26 -39 25
-49 -2z"/>
<path d="M736 353 c-4 -4 -15 -8 -24 -8 -9 0 -18 -8 -20 -17 -2 -12 3 -18 15
-18 15 0 16 -2 3 -11 -13 -9 -13 -10 0 -6 8 2 16 13 18 24 2 12 10 24 18 27
11 4 13 0 8 -21 -5 -18 -4 -24 5 -19 16 10 14 56 -2 56 -8 0 -17 -3 -21 -7z
m-21 -23 c3 -5 1 -10 -4 -10 -6 0 -11 5 -11 10 0 6 2 10 4 10 3 0 8 -4 11 -10z"/>
<path d="M532 331 c-21 -13 -10 -46 16 -49 12 -2 22 1 22 6 0 6 -9 8 -20 5
-21 -6 -25 3 -11 26 5 7 14 10 20 7 6 -4 11 -2 11 3 0 13 -20 14 -38 2z"/>
<path d="M580 310 c0 -23 4 -30 20 -30 25 0 25 8 3 33 -17 19 -17 20 0 14 9
-4 17 -2 17 3 0 6 -9 10 -20 10 -16 0 -20 -7 -20 -30z"/>
<path d="M657 334 c-3 -4 -2 -14 3 -24 5 -10 6 -20 3 -24 -3 -3 1 -6 11 -6 11
0 14 4 9 13 -4 6 -8 18 -9 25 -3 18 -9 24 -17 16z"/>
</g>
</svg>
